<?xml version="1.0" encoding="iso-8859-1"?>
<!-- Generator: Adobe Illustrator 19.0.0, SVG Export Plug-In . SVG Version: 6.00 Build 0)  -->
<svg version="1.1" id="Layer_1" xmlns="http://www.w3.org/2000/svg" xmlns:xlink="http://www.w3.org/1999/xlink" x="0px" y="0px"
	 viewBox="0 0 512.001 512.001" style="enable-background:new 0 0 512.001 512.001;" xml:space="preserve">
<g>
	<g>
		<path d="M492.499,286.119h-5.384v-28.864c0-12.208-9.933-22.141-22.141-22.141h-21.96c-12.207,0-22.139,9.933-22.139,22.141
			v28.864h-29.771v-28.864c0-12.208-9.933-22.141-22.141-22.141h-21.96c-12.207,0-22.139,9.933-22.139,22.141v28.864h-29.771
			v-28.864c0-12.208-9.933-22.141-22.142-22.141H250.99c-12.207,0-22.14,9.933-22.14,22.141v28.864
			c-5.484,0-14.864-0.984-21.392,8.392l65.066-129.541c4.821-9.61,0.928-21.354-8.679-26.178
			c-6.474-3.252-71.72-36.023-81.327-40.849c-2.706-1.358-5.73-2.077-8.745-2.077c-13.385,0-17.621,11.115-19.853,15.561
			l-25.791-12.953c-10.767-5.412-24.137-1.277-29.725,9.848l-9.856,19.623c-5.479,10.906-1.061,24.239,9.85,29.72l25.793,12.954
			l-13.362,26.604c-27.604-13.865-28.959-15.314-35.72-15.314c-8.429,0-16.015,4.677-19.796,12.205l-9.855,19.622
			c-5.48,10.908-1.063,24.242,9.847,29.723l25.794,12.955l-13.36,26.606c-27.652-13.891-28.971-15.314-35.719-15.314
			c-8.427,0-16.013,4.676-19.799,12.206l-9.853,19.62c-5.496,10.933-1.093,24.229,9.846,29.724l25.795,12.955
			c-2.606,5.19-6.379,11.017-3.503,19.698c1.638,4.946,5.105,8.957,9.759,11.294c7.214,3.623,67.162,33.733,81.327,40.849
			c9.525,4.783,21.3,1.052,26.182-8.674l53.217-105.95c-1.409,4.196-1.023-2.063-1.023,97.199c0,10.753,8.749,19.502,19.502,19.502
			h269.031c10.753,0,19.502-8.749,19.502-19.502c0-10.127,0-79.74,0-91.01C512.001,294.868,503.252,286.119,492.499,286.119z
			 M105.133,144.26c-3.519-1.767-4.944-6.065-3.178-9.581l9.856-19.623c1.221-2.43,3.67-3.938,6.393-3.938
			c2.267,0,0.958-0.36,28.984,13.717l-16.264,32.382L105.133,144.26z M62.04,230.058c-3.518-1.767-4.942-6.067-3.175-9.583
			l9.854-19.623c1.793-3.569,6.093-4.93,9.584-3.174l25.793,12.954c-7.168,14.272-3.853,7.673-16.263,32.382L62.04,230.058z
			 M18.946,315.855c-3.518-1.768-4.951-6.047-3.174-9.584l9.852-19.619c1.796-3.569,6.095-4.934,9.588-3.178l25.793,12.956
			L44.741,328.81L18.946,315.855z M135.827,400.872c-1.219,0.423-2.482,0.292-3.503-0.221l-15.341-7.705l94.794-188.731
			c1.859-3.701,0.365-8.21-3.336-10.069c-3.701-1.857-8.211-0.366-10.069,3.336l-94.794,188.731
			c-56.912-28.585-54.004-26.513-54.832-29.016c-0.995-3.003,1.542-5.217,6.035-14.951c0.886-1.765,113.782-226.541,114.963-228.893
			c1.118-2.227,3.813-3.12,6.044-2.002l52.523,26.38l-19.661,38.302c-1.892,3.685-0.438,8.206,3.247,10.098
			c3.683,1.894,8.207,0.438,10.098-3.247l19.722-38.419l15.401,7.735c2.217,1.113,3.114,3.825,2.003,6.042
			C131.685,411.952,138.405,399.972,135.827,400.872z M443.015,250.115h21.959c3.937,0,7.14,3.202,7.14,7.14v28.864h-36.236v-28.864
			h-0.001C435.877,253.319,439.078,250.115,443.015,250.115z M347.004,250.115h21.96c3.937,0,7.14,3.202,7.14,7.14v28.864h-36.236
			v-28.864h-0.001C339.866,253.319,343.068,250.115,347.004,250.115z M250.993,250.115h21.959c3.938,0,7.14,3.202,7.14,7.14v28.864
			h-36.236v-28.864h-0.001C243.855,253.319,247.057,250.115,250.993,250.115z M496.999,364.462H278.05
			c-4.143,0-7.501,3.357-7.501,7.501s3.357,7.501,7.501,7.501h218.949v17.168c0,2.482-2.019,4.5-4.501,4.5h-269.03
			c-2.481,0-4.501-2.018-4.501-4.5v-17.168h33.08c4.143,0,7.501-3.357,7.501-7.501c0-4.143-3.357-7.501-7.501-7.501h-33.08v-58.841
			c0-2.481,2.019-4.501,4.501-4.501c11.59,0,257.054,0,269.031,0c2.481,0,4.5,2.019,4.5,4.501V364.462z"/>
	</g>
</g>
<g>
</g>
<g>
</g>
<g>
</g>
<g>
</g>
<g>
</g>
<g>
</g>
<g>
</g>
<g>
</g>
<g>
</g>
<g>
</g>
<g>
</g>
<g>
</g>
<g>
</g>
<g>
</g>
<g>
</g>
</svg>
