<?xml version="1.0" encoding="iso-8859-1"?>
<!-- Generator: Adobe Illustrator 16.0.0, SVG Export Plug-In . SVG Version: 6.00 Build 0)  -->
<!DOCTYPE svg PUBLIC "-//W3C//DTD SVG 1.1//EN" "http://www.w3.org/Graphics/SVG/1.1/DTD/svg11.dtd">
<svg version="1.1" id="Capa_1" xmlns="http://www.w3.org/2000/svg" xmlns:xlink="http://www.w3.org/1999/xlink" x="0px" y="0px"
	 width="452.555px" height="452.555px" viewBox="0 0 452.555 452.555" style="enable-background:new 0 0 452.555 452.555;"
	 xml:space="preserve">
<g>
	<g>
		<path d="M159.471,81.162h281.455c6.422,0,11.629-5.208,11.629-11.629c0-6.423-5.207-11.631-11.629-11.631H159.471
			c-6.422,0-11.629,5.208-11.629,11.631C147.842,75.954,153.049,81.162,159.471,81.162z"/>
		<path d="M440.926,94.448H159.471c-6.422,0-11.629,5.208-11.629,11.629c0,6.424,5.207,11.631,11.629,11.631h281.455
			c6.422,0,11.629-5.207,11.629-11.631C452.555,99.656,447.348,94.448,440.926,94.448z"/>
		<path d="M440.926,194.66H159.471c-6.422,0-11.629,5.208-11.629,11.629c0,6.423,5.207,11.631,11.629,11.631h281.455
			c6.422,0,11.629-5.208,11.629-11.631C452.555,199.868,447.348,194.66,440.926,194.66z"/>
		<path d="M440.926,231.218H159.471c-6.422,0-11.629,5.207-11.629,11.629c0,6.423,5.207,11.631,11.629,11.631h281.455
			c6.422,0,11.629-5.208,11.629-11.631C452.555,236.425,447.348,231.218,440.926,231.218z"/>
		<path d="M98.86,307.796H11.628C5.208,307.796,0,313.005,0,319.425v87.232c0,6.423,5.208,11.629,11.628,11.629H98.86
			c6.424,0,11.629-5.206,11.629-11.629v-87.232C110.489,313.005,105.284,307.796,98.86,307.796z M87.231,395.028H23.26v-63.973
			h63.971V395.028L87.231,395.028z"/>
		<path d="M440.926,331.429H159.471c-6.422,0-11.629,5.209-11.629,11.632c0,6.421,5.207,11.629,11.629,11.629h281.455
			c6.422,0,11.629-5.208,11.629-11.629C452.555,336.638,447.348,331.429,440.926,331.429z"/>
		<path d="M440.926,367.976H159.471c-6.422,0-11.629,5.208-11.629,11.629c0,6.424,5.207,11.631,11.629,11.631h281.455
			c6.422,0,11.629-5.207,11.629-11.631C452.555,373.184,447.348,367.976,440.926,367.976z"/>
		<path d="M122.278,77.88h-11.789V45.897c0-6.42-5.205-11.629-11.629-11.629H11.628C5.208,34.269,0,39.478,0,45.897v87.232
			c0,6.424,5.208,11.629,11.628,11.629H98.86c6.424,0,11.629-5.205,11.629-11.629v-31.992h11.789
			c6.424,0,11.629-5.207,11.629-11.629S128.702,77.88,122.278,77.88z M87.231,121.501H23.26V57.528h63.971V77.88H55.245
			c-6.421,0-11.629,5.207-11.629,11.629s5.208,11.629,11.629,11.629h31.986V121.501L87.231,121.501z"/>
		<path d="M122.278,214.649h-11.789v-31.994c0-6.42-5.205-11.629-11.629-11.629H11.628C5.208,171.026,0,176.235,0,182.655v87.244
			c0,6.423,5.208,11.629,11.628,11.629H98.86c6.424,0,11.629-5.206,11.629-11.629v-31.992h11.789
			c6.424,0,11.629-5.207,11.629-11.629C133.907,219.855,128.702,214.649,122.278,214.649z M87.231,258.271H23.26v-63.983h63.971
			v20.362H55.245c-6.421,0-11.629,5.206-11.629,11.629c0,6.422,5.208,11.629,11.629,11.629h31.986V258.271L87.231,258.271z"/>
	</g>
</g>
<g>
</g>
<g>
</g>
<g>
</g>
<g>
</g>
<g>
</g>
<g>
</g>
<g>
</g>
<g>
</g>
<g>
</g>
<g>
</g>
<g>
</g>
<g>
</g>
<g>
</g>
<g>
</g>
<g>
</g>
</svg>
